<svg width="30" height="30" viewBox="0 0 30 30" fill="none" xmlns="http://www.w3.org/2000/svg">
<path fill-rule="evenodd" clip-rule="evenodd" d="M25.8 5.9C25.8 8.0539 24.054 9.8 21.9 9.8C19.746 9.8 18 8.0539 18 5.9C18 3.74609 19.746 2 21.9 2C24.054 2 25.8 3.74609 25.8 5.9ZM23.6207 12.1698C23.0726 12.3199 22.4957 12.4 21.9 12.4C18.3102 12.4 15.4 9.48985 15.4 5.9C15.4 5.45515 15.4447 5.02076 15.5299 4.60103C15.4866 4.60035 15.4433 4.6 15.4 4.6C11.2022 4.6 7.66997 7.83812 7.18353 12.1322L6.73519 16.09C6.62378 17.0735 6.2252 17.999 5.59214 18.744C4.24872 20.3253 5.33905 22.8 7.37918 22.8H23.4209C25.461 22.8 26.5513 20.3253 25.2078 18.744C24.5747 17.999 24.1762 17.0735 24.0648 16.09L23.6207 12.1698ZM19.2637 25.4929C18.6691 26.959 17.1634 28 15.4 28C13.6365 28 12.1308 26.959 11.5363 25.4929C11.5115 25.4318 11.5 25.3662 11.5 25.3003C11.5 24.9963 11.7464 24.75 12.0503 24.75H18.7497C19.0536 24.75 19.3 24.9963 19.3 25.3003C19.3 25.3662 19.2886 25.4318 19.2637 25.4929Z" fill="#AFB8C8"/>
<path fill-rule="evenodd" clip-rule="evenodd" d="M25.8 5.9C25.8 8.0539 24.054 9.8 21.9 9.8C19.746 9.8 18 8.0539 18 5.9C18 3.74609 19.746 2 21.9 2C24.054 2 25.8 3.74609 25.8 5.9Z" fill="#AFB8C8"/>
</svg>
