<svg width="40" height="40" viewBox="0 0 40 40" fill="none" xmlns="http://www.w3.org/2000/svg">
<path d="M22.4526 35C27.1041 34.9959 29.8931 33.3201 29.8931 30.5176V24.3509C31.8492 22.6315 33 19.8641 33 16.821C33 9.71684 28.417 5 21.5612 5C14.7395 5 10.1923 9.62395 10.1923 16.5599C10.1923 16.9596 10.2015 17.2921 10.2313 17.5998L8.60408 20.5336C8.1979 21.2696 8 21.9725 8 22.628C8 23.8824 8.78574 24.893 10.1902 25.18V27.4848C10.1902 29.8231 11.7759 30.9709 13.9907 30.7378L16.1645 30.5024L15.1237 29.6037V30.5176C15.1237 33.3201 17.8637 35 22.4526 35Z" fill="#24272D"/>
<path d="M14.1074 14.671C14.1074 16.84 15.5751 18.3024 17.7425 18.3024C19.8807 18.3024 21.3374 16.9942 21.3374 15.0341C21.3374 14.2237 21.0637 13.5377 20.5585 13.1099C20.326 12.9074 20.1676 12.8396 19.9482 12.8396C19.6106 12.8396 19.3561 13.0667 19.3561 13.3977C19.3561 13.7545 19.5548 13.8554 19.8131 14.107C20.0217 14.3169 20.1421 14.6246 20.1421 15.0115C20.1421 16.247 19.1965 17.0649 17.7575 17.0649C16.2834 17.0649 15.3137 16.1153 15.3137 14.6689C15.3137 13.7823 15.7709 12.9717 16.5218 12.5529L15.9147 11.452C14.8111 12.1 14.1074 13.3475 14.1074 14.671ZM15.5934 11.6618C15.5934 13.0624 16.5598 14.0106 17.9783 14.0106C18.2938 14.0106 18.5814 13.7248 18.5814 13.3918C18.5814 13.0568 18.3029 12.7731 17.9783 12.7731C17.2641 12.7731 16.7997 12.3357 16.7997 11.6618C16.7997 10.9559 17.3744 10.4434 18.1708 10.4434C18.6188 10.4434 19.0721 10.6172 19.443 10.9174L20.1494 9.90499C19.576 9.45364 18.8914 9.20591 18.1798 9.20591C16.7121 9.20591 15.5934 10.2539 15.5934 11.6618ZM18.579 11.4871C18.5699 11.8581 18.8225 12.1418 19.1781 12.1418C19.5248 12.1418 19.7612 11.9013 19.7723 11.5364C19.8234 10.5158 20.5305 9.81314 21.5122 9.80386C22.0909 9.80386 22.6114 10.1177 22.813 10.6115C22.9051 10.7853 23.0836 10.7934 23.3313 10.7296C23.4616 10.6844 23.6159 10.6751 23.7644 10.6751C24.7611 10.6751 25.5403 11.4724 25.5403 12.5188C25.5403 15.0957 21.8634 14.7144 21.8634 17.4895C21.8634 18.7738 22.8529 19.6727 24.2604 19.6727C24.3457 19.6727 24.431 19.6727 24.5344 19.6727C24.7319 20.8021 25.4556 21.5776 26.3519 21.5776C27.653 21.5776 28.5793 20.0913 28.5793 17.9922C28.5793 17.1461 28.5241 16.6011 28.4761 16.0786L27.2537 16.4282C27.3087 16.9373 27.3729 17.3825 27.3729 17.9696C27.3729 19.3488 26.9056 20.3381 26.3519 20.3381C25.8694 20.3381 25.5414 19.7084 25.5414 18.8031C25.5414 18.6345 25.4251 18.5431 25.2679 18.5431C25.1133 18.5431 24.9336 18.5524 24.7814 18.5524C23.6651 18.5524 23.1005 18.1759 23.1005 17.4639C23.1005 15.5212 26.7556 16.0096 26.7556 12.5188C26.7556 10.7683 25.5006 9.42627 23.8806 9.42627C23.7692 9.42627 23.6397 9.43758 23.5063 9.46541C23.0211 8.90682 22.2903 8.57764 21.5122 8.57764C19.8592 8.57764 18.6332 9.76653 18.579 11.4871ZM25.1681 17.1131C25.1681 17.4481 25.4135 17.7071 25.7512 17.7411C27.748 17.8716 29.1074 16.6447 29.1074 14.7051C29.1074 13.0484 27.9256 11.7948 26.1873 11.6292L25.999 12.8862C27.138 12.8133 27.9031 13.552 27.9031 14.7051C27.9031 15.884 27.0638 16.6095 25.7772 16.5056C25.4576 16.4809 25.1681 16.776 25.1681 17.1131ZM22.4967 17.6906C22.1589 17.8325 21.7297 17.9137 21.3277 17.9137C20.4094 17.9137 19.5363 17.5182 19.2697 16.9664L18.2071 17.8278C18.8447 18.6583 19.9659 19.1492 21.2236 19.1492C21.7758 19.1492 22.3642 19.0546 22.8974 18.8696L22.4967 17.6906ZM20.4069 13.7588L20.8037 14.9511C22.3093 14.697 23.1171 13.7694 23.1071 12.2464C23.1032 11.9206 22.8137 11.6276 22.4871 11.6276C22.1624 11.6276 21.8929 11.9113 21.8989 12.2556C21.9107 13.2226 21.4516 13.6558 20.4069 13.7588Z" fill="white"/>
</svg>
