<svg width="24" height="24" viewBox="0 0 24 24" fill="none" xmlns="http://www.w3.org/2000/svg">
<path d="M21.2009 3.88009C20.063 2.6835 18.4684 2.00265 16.7978 2.00013C15.1259 2.00202 13.5297 2.6825 12.39 3.87933L12.0016 4.28086L11.6132 3.87933C9.35176 1.49817 5.54541 1.36142 3.11148 3.57383C3.00363 3.67191 2.89947 3.77377 2.79922 3.87933C0.40026 6.4108 0.40026 10.3231 2.79922 12.8545L11.4308 21.7598C11.7294 22.0682 12.2271 22.0814 12.5423 21.7892C12.5527 21.7797 12.5627 21.7699 12.5725 21.7598L21.2009 12.8545C23.5997 10.3233 23.5997 6.41129 21.2009 3.88009Z" fill="#DFE2E8"/>
</svg>
