<svg width="28" height="28" viewBox="0 0 28 28" fill="none" xmlns="http://www.w3.org/2000/svg">
<g clip-path="url(#clip0_870_10605)" filter="url(#filter0_d_870_10605)">
<path fill-rule="evenodd" clip-rule="evenodd" d="M14 0C8.48086 0 4 4.48086 4 10C4 15.5191 8.48086 20 14 20C19.5191 20 24 15.5191 24 10C24 4.48086 19.5191 0 14 0ZM13.9412 16.4134H13.9413C14.7227 16.4134 15.3562 15.78 15.3562 14.9986V14.9985C15.3562 14.217 14.7227 13.5836 13.9413 13.5836H13.9412C13.1598 13.5836 12.5263 14.217 12.5263 14.9985V14.9986C12.5263 15.78 13.1598 16.4134 13.9412 16.4134ZM11.413 8.0175C11.3836 8.01711 11.2873 8.0107 11.2686 8.00848C10.8705 7.96117 10.5138 7.7398 10.2946 7.4041C10.0754 7.06836 10.0162 6.65273 10.132 6.27293C10.3487 5.54691 10.7146 4.96465 11.219 4.51945C11.9097 3.90988 12.8164 3.58656 13.9517 3.58656C15.1482 3.58656 16.0957 3.93207 16.808 4.5832C17.5564 5.2673 17.9257 6.09688 17.9257 7.06746C17.9257 7.63555 17.791 8.15883 17.5247 8.63813C17.2895 9.06156 16.8387 9.58473 16.1542 10.1909C15.8012 10.5038 15.5655 10.7294 15.4572 10.8778C15.3812 10.9819 15.3267 11.1023 15.2901 11.2374C15.2635 11.3357 15.2465 11.4701 15.233 11.64C15.2326 11.6453 15.2321 11.6505 15.2316 11.6559C15.1688 12.2701 14.6903 12.7498 14.0925 12.827C14.0659 12.8304 13.9221 12.8401 13.9221 12.8401C13.5594 12.8401 13.2127 12.6906 12.9637 12.4269C12.7146 12.1631 12.5854 11.8084 12.6055 11.4603C12.6073 11.4118 12.6093 11.3723 12.6114 11.3459C12.6436 10.9301 12.7256 10.5605 12.8498 10.2418C12.9764 9.90789 13.1773 9.56902 13.4612 9.22727C13.6419 9.01133 13.9649 8.6941 14.4344 8.27984C14.7874 7.9684 15.0272 7.73 15.1329 7.54504C15.2016 7.42477 15.2347 7.29316 15.2347 7.15082C15.2347 6.85473 15.1102 6.59856 14.8789 6.37438C14.6329 6.13578 14.3296 6.02059 13.9725 6.02059C13.6331 6.02059 13.3467 6.11855 13.1194 6.33105C12.9403 6.49852 12.8178 6.74133 12.7276 7.05105C12.5531 7.6359 12.0119 8.02574 11.413 8.0175Z" fill="#586270"/>
</g>
<defs>
<filter id="filter0_d_870_10605" x="0" y="0" width="28" height="28" filterUnits="userSpaceOnUse" color-interpolation-filters="sRGB">
<feFlood flood-opacity="0" result="BackgroundImageFix"/>
<feColorMatrix in="SourceAlpha" type="matrix" values="0 0 0 0 0 0 0 0 0 0 0 0 0 0 0 0 0 0 127 0" result="hardAlpha"/>
<feOffset dy="4"/>
<feGaussianBlur stdDeviation="2"/>
<feComposite in2="hardAlpha" operator="out"/>
<feColorMatrix type="matrix" values="0 0 0 0 0 0 0 0 0 0 0 0 0 0 0 0 0 0 0.25 0"/>
<feBlend mode="normal" in2="BackgroundImageFix" result="effect1_dropShadow_870_10605"/>
<feBlend mode="normal" in="SourceGraphic" in2="effect1_dropShadow_870_10605" result="shape"/>
</filter>
<clipPath id="clip0_870_10605">
<rect width="20" height="20" fill="white" transform="translate(4)"/>
</clipPath>
</defs>
</svg>
