<svg width="40" height="40" viewBox="0 0 40 40" fill="none" xmlns="http://www.w3.org/2000/svg">
<path fill-rule="evenodd" clip-rule="evenodd" d="M19.4998 5C15.3663 5 12.0154 8.35787 12.0154 12.5C12.0154 16.6421 15.3663 20 19.4998 20C23.6333 20 26.9843 16.6421 26.9843 12.5C26.9843 8.35787 23.6333 5 19.4998 5Z" fill="#DFE2E8"/>
<path fill-rule="evenodd" clip-rule="evenodd" d="M19.4999 21.5001C13.5674 21.5001 9.75166 23.6694 7.73189 26.9826C6.47834 29.039 6.95814 31.179 8.23973 32.6712C9.46914 34.1028 11.45 35.0001 13.5123 35.0001H25.4874C27.5497 35.0001 29.5305 34.1028 30.7601 32.6712C32.0416 31.179 32.5215 29.039 31.2678 26.9826C29.2481 23.6694 25.4323 21.5001 19.4999 21.5001Z" fill="#DFE2E8"/>
</svg>
