<svg width="40" height="40" viewBox="0 0 40 40" fill="none" xmlns="http://www.w3.org/2000/svg">
<g clip-path="url(#clip0_870_10649)">
<path d="M21.2743 7.59523L13.8354 15.0262C13.3386 15.5225 13.0566 16.2066 13.0566 16.9175V30.3173C13.0566 31.7928 14.2651 33 15.7421 33H27.827C28.9012 33 29.868 32.3562 30.2977 31.377L34.6751 21.1695C35.803 18.5136 33.856 15.5627 30.9691 15.5627H23.3824L24.6581 9.41943C24.7923 8.74877 24.5909 8.06469 24.1075 7.58181C23.3153 6.80384 22.0531 6.80384 21.2743 7.59523ZM7.68553 33C9.16257 33 10.3711 31.7928 10.3711 30.3173V19.5867C10.3711 18.1112 9.16257 16.904 7.68553 16.904C6.20849 16.904 5 18.1112 5 19.5867V30.3173C5 31.7928 6.20849 33 7.68553 33Z" fill="#24272D"/>
</g>
<defs>
<clipPath id="clip0_870_10649">
<rect width="30" height="30" fill="white" transform="translate(5 5)"/>
</clipPath>
</defs>
</svg>
