<svg width="20" height="20" viewBox="0 0 20 20" fill="none" xmlns="http://www.w3.org/2000/svg">
<path d="M16.6977 16.1237H9.58341L17.5421 8.1572C17.6882 8.01318 17.8042 7.84157 17.8833 7.65233C17.9625 7.46309 18.0033 7.26 18.0033 7.05487C18.0033 6.84973 17.9625 6.64665 17.8833 6.45741C17.8042 6.26817 17.6882 6.09655 17.5421 5.95254L14.0475 2.45791C13.9029 2.31278 13.7311 2.19761 13.542 2.11903C13.3528 2.04045 13.15 2 12.9451 2C12.7403 2 12.5375 2.04045 12.3483 2.11903C12.1591 2.19761 11.9873 2.31278 11.8428 2.45791L2.46126 11.8395C2.31517 11.9835 2.19916 12.1551 2.11997 12.3443C2.04079 12.5336 2.00001 12.7366 2 12.9418V16.4364C2.00205 16.8505 2.16745 17.247 2.46024 17.5398C2.75302 17.8326 3.14953 17.9979 3.56359 18H16.6977C16.9466 18 17.1852 17.9012 17.3611 17.7252C17.5371 17.5493 17.6359 17.3107 17.6359 17.0618C17.6359 16.813 17.5371 16.5744 17.3611 16.3985C17.1852 16.2225 16.9466 16.1237 16.6977 16.1237ZM12.9451 4.00587L15.9941 7.05487L14.8214 8.22756L11.7724 5.17856L12.9451 4.00587ZM3.87631 16.1237V13.0747L10.4434 6.50761L13.4924 9.55661L6.92531 16.1237H3.87631Z" fill="#24272D"/>
</svg>
